<svg xmlns="http://www.w3.org/2000/svg" viewBox="0 0 64 64" fill="none" aria-hidden="true">
  <circle cx="32" cy="32" r="30" fill="currentColor" opacity="0.18" />
  <circle cx="32" cy="32" r="30" stroke="currentColor" stroke-width="3" />
  <circle cx="32" cy="32" r="23" fill="currentColor" opacity="0.10" />
  <circle cx="32" cy="32" r="23" stroke="currentColor" stroke-width="1.5" opacity="0.7" />
  <path
    d="M32 16v2.5 M32 45.5V48 M25.5 24.2c0-3.2 2.9-5.7 6.5-5.7s6.5 2.5 6.5 5.7 c0 3.8-4.2 4.6-6.5 6.3-2.3 1.7-6.5 2.5-6.5 6.3 c0 3.2 2.9 5.7 6.5 5.7s6.5-2.5 6.5-5.7"
    stroke="currentColor"
    stroke-width="3"
    stroke-linecap="round"
    stroke-linejoin="round"
    fill="none"
  />
  <path d="M18 14a22 22 0 0 1 8-5" stroke="currentColor" stroke-width="2" stroke-linecap="round" opacity="0.35" />
</svg>
